<svg xmlns="http://www.w3.org/2000/svg" width="1600" height="900" viewBox="0 0 1600 900">
  <defs>
    <marker id="arrow-red" viewBox="0 0 10 10" refX="9" refY="5" markerWidth="7" markerHeight="7" orient="auto-start-reverse">
      <path d="M 0 0 L 10 5 L 0 10 z" fill="#d33"/>
    </marker>
    <marker id="arrow-green" viewBox="0 0 10 10" refX="9" refY="5" markerWidth="7" markerHeight="7" orient="auto-start-reverse">
      <path d="M 0 0 L 10 5 L 0 10 z" fill="#26a641"/>
    </marker>
    <style>
      .title { font: 700 20px Arial, sans-serif; fill: #111; }
      .label { font: 700 17px Arial, sans-serif; fill: #111; }
      .small { font: 600 14px Arial, sans-serif; fill: #111; }
      .tiny { font: 500 13px Arial, sans-serif; fill: #111; }
      .box { fill: #f7f7f7; stroke: #111; stroke-width: 3; }
      .group { fill: none; stroke: #111; stroke-width: 3; }
      .arrow { fill: none; stroke: #d33; stroke-width: 3; marker-end: url(#arrow-red); }
      .yes { fill: none; stroke: #26a641; stroke-width: 3; marker-end: url(#arrow-green); }
      .no { fill: none; stroke: #d33; stroke-width: 3; marker-end: url(#arrow-red); }
      .note { fill: #fff; stroke: #ddd; stroke-width: 1; }
    </style>
  </defs>

  <rect width="1600" height="900" fill="#f3f3f3"/>

  <text x="540" y="42" class="title">Preparacao de artefatos para o Trabalho 2</text>
  <rect x="180" y="55" width="1060" height="145" class="group"/>

  <rect x="210" y="82" width="145" height="80" class="box"/>
  <text x="252" y="114" class="label">SCHEME</text>
  <text x="244" y="138" class="label">R4RS</text>

  <path d="M 355 122 C 385 100, 405 144, 435 122" class="arrow"/>
  <rect x="435" y="82" width="175" height="80" class="box"/>
  <text x="464" y="114" class="label">Subconjunto</text>
  <text x="472" y="138" class="label">aceito</text>

  <path d="M 610 122 C 640 100, 660 144, 690 122" class="arrow"/>
  <rect x="690" y="82" width="175" height="80" class="box"/>
  <text x="724" y="114" class="label">scheme.flex</text>
  <text x="735" y="138" class="small">tokens</text>

  <path d="M 865 122 C 895 100, 915 144, 945 122" class="arrow"/>
  <rect x="945" y="82" width="175" height="80" class="box"/>
  <text x="982" y="114" class="label">scheme.y</text>
  <text x="972" y="138" class="small">S-expressions</text>

  <path d="M 1120 122 C 1160 122, 1180 185, 1210 230" class="arrow"/>

  <rect x="70" y="270" width="165" height="78" class="box"/>
  <text x="94" y="302" class="label">Programa</text>
  <text x="105" y="326" class="label">.scm</text>

  <path d="M 235 309 C 275 290, 300 330, 340 309" class="arrow"/>
  <rect x="340" y="270" width="210" height="78" class="box"/>
  <text x="372" y="302" class="label">Scanner Java</text>
  <text x="386" y="326" class="small">baseado no Flex</text>

  <rect x="365" y="390" width="160" height="54" class="box"/>
  <text x="404" y="423" class="label">Tokens</text>
  <path d="M 445 348 C 445 365, 445 375, 445 390" class="arrow"/>

  <path d="M 525 417 C 570 395, 595 435, 640 417" class="arrow"/>
  <rect x="640" y="378" width="240" height="82" class="box"/>
  <text x="680" y="410" class="label">Parser bottom-up</text>
  <text x="668" y="434" class="small">reducoes + contexto</text>

  <rect x="640" y="510" width="240" height="82" class="box"/>
  <text x="700" y="542" class="label">AST +</text>
  <text x="656" y="566" class="small">tabela integrada</text>
  <path d="M 760 460 C 760 480, 760 492, 760 510" class="yes"/>

  <rect x="1010" y="235" width="355" height="420" class="group"/>
  <text x="1065" y="220" class="title">VALIDACAO INTEGRADA</text>

  <rect x="1075" y="278" width="220" height="78" class="box"/>
  <text x="1115" y="310" class="label">Tabela de</text>
  <text x="1115" y="334" class="label">simbolos</text>

  <rect x="1075" y="405" width="220" height="86" class="box"/>
  <text x="1110" y="436" class="label">Contexto de</text>
  <text x="1105" y="460" class="label">identificadores</text>

  <rect x="1075" y="540" width="220" height="78" class="box"/>
  <text x="1120" y="572" class="label">Verificacao</text>
  <text x="1145" y="596" class="label">de tipos</text>

  <path d="M 880 551 C 930 535, 965 320, 1075 317" class="arrow"/>
  <path d="M 1185 356 C 1185 378, 1185 390, 1185 405" class="arrow"/>
  <path d="M 1185 491 C 1185 515, 1185 525, 1185 540" class="arrow"/>

  <rect x="1400" y="300" width="150" height="75" class="box"/>
  <text x="1435" y="332" class="label">Erros</text>
  <text x="1423" y="356" class="label">sintaticos</text>
  <path d="M 880 418 C 990 410, 1280 300, 1400 335" class="no"/>
  <text x="1320" y="306" class="small" fill="#d33">NAO</text>

  <rect x="1400" y="520" width="150" height="75" class="box"/>
  <text x="1435" y="552" class="label">Erros</text>
  <text x="1418" y="576" class="label">semanticos</text>
  <path d="M 1295 580 C 1345 575, 1365 548, 1400 558" class="no"/>
  <text x="1320" y="545" class="small" fill="#d33">NAO</text>

  <rect x="1020" y="705" width="250" height="82" class="box"/>
  <text x="1065" y="737" class="label">Gerador de</text>
  <text x="1085" y="761" class="label">Python</text>
  <path d="M 1185 618 C 1185 658, 1150 674, 1145 705" class="yes"/>
  <text x="1200" y="674" class="small" fill="#26a641">SIM</text>

  <rect x="1340" y="705" width="150" height="82" class="box"/>
  <text x="1380" y="737" class="label">Arquivo</text>
  <text x="1392" y="761" class="label">.py</text>
  <path d="M 1270 746 C 1298 746, 1315 746, 1340 746" class="yes"/>

  <rect x="1340" y="815" width="150" height="58" class="box"/>
  <text x="1367" y="850" class="label">Execucao</text>
  <path d="M 1415 787 C 1415 798, 1415 805, 1415 815" class="yes"/>

  <rect x="50" y="660" width="355" height="120" class="note"/>
  <text x="75" y="690" class="small">Mensagens de erro no terminal:</text>
  <text x="75" y="720" class="tiny">- codigo com problema</text>
  <text x="75" y="745" class="tiny">- linha e coluna</text>
  <text x="75" y="770" class="tiny">- explicacao em linguagem de usuario</text>
</svg>
